<svg width="512" height="512" viewBox="0 0 512 512" fill="none" xmlns="http://www.w3.org/2000/svg">
<path d="M278.24 134.18H324.449H352.391L428.026 0.00634887H400.079H353.875H325.932H0.00538635V134.18H250.293H278.24Z" fill="#2E3192"/>
<path d="M56.7034 189.799H218.939H246.468L190.85 134.187H1.08963L56.7034 189.799Z" fill="#021C33"/>
<path d="M37.3063 512L112.941 377.826H112.67H0.000808716V512H37.3063Z" fill="#29ABE2"/>
<path d="M56.647 323.978H0V377.826H112.669L56.647 323.978Z" fill="#021C33"/>
<path d="M172.306 323.973L247.941 189.799H0.00462341V323.973H172.306Z" fill="#0071BC"/>
<path d="M233.761 377.822H187.551H159.609L83.974 511.996H111.921H158.126H186.068H511.995V377.822H261.703H233.761Z" fill="#2E3192"/>
<path d="M455.292 322.208H293.056H265.532L321.146 377.82H510.906L455.292 322.208Z" fill="#021C33"/>
<path d="M474.694 -5.98181e-05L399.059 134.174H399.33H511.999V-5.98181e-05H474.694Z" fill="#29ABE2"/>
<path d="M455.353 188.022H512V134.173H399.331L455.353 188.022Z" fill="#021C33"/>
<path d="M339.695 188.026L264.055 322.205H511.996V188.026H339.695Z" fill="#0071BC"/>
</svg>
